<svg width="228" height="42" viewBox="0 0 228 42" fill="none" xmlns="http://www.w3.org/2000/svg">
<g clip-path="url(#clip0_2176_1265)">
<path d="M113.603 0.747192H25.3033V19.9543H113.603V0.747192Z" fill="white"/>
<path d="M0.078064 20.8802L7.24604 2.11597H8.98001L1.81204 20.8802H0.078064Z" fill="white"/>
<path d="M14.518 16.9533L13.1389 15.9716L15.6891 12.5036L11.6556 11.1458L12.1572 9.5772L16.1906 10.9137V6.54675H17.946V10.9137L21.9794 9.5772L22.481 11.1458L18.4475 12.5036L20.9977 15.9716L19.6186 16.9533L17.0683 13.464L14.518 16.9533Z" fill="white"/>
<path d="M27.5975 3.40955H31.7991C35.4137 3.40955 37.1904 5.93848 37.1904 10.7029C37.1904 15.4673 35.4137 17.9963 31.7991 17.9963H27.5975V3.40955ZM31.6924 16.2836C33.9065 16.2836 35.0563 14.675 35.0563 11.874V9.53447C35.0563 6.73344 33.9065 5.12484 31.6924 5.12484H29.6036V16.2836H31.6924Z" fill="#222222"/>
<path d="M48.5786 17.9963C47.3034 17.9963 46.7406 17.2653 46.6152 16.2196H46.5111C46.0523 17.4734 44.9852 18.247 43.2513 18.247C41.0371 18.247 39.5939 17.0146 39.5939 14.9872C39.5939 12.9598 41.0558 11.81 44.2757 11.81H46.4711V10.8497C46.4711 9.32376 45.6148 8.55014 44.0249 8.55014C42.603 8.55014 41.7467 9.13436 41.1838 10.0974L39.9514 9.11568C40.5169 7.98727 41.9361 6.96289 44.1716 6.96289C46.7832 6.96289 48.4132 8.32072 48.4132 10.6816V16.3877H49.8564V17.9963H48.5812H48.5786ZM46.4685 14.8191V13.1465H44.2943C42.4563 13.1465 41.5973 13.6907 41.5973 14.6937V15.1339C41.5973 16.1796 42.4136 16.7211 43.7074 16.7211C45.316 16.7211 46.4658 15.9048 46.4658 14.8191H46.4685Z" fill="#222222"/>
<path d="M52.4012 16.3877H55.4317V8.82222H52.4012V7.21362H57.3737V9.99331H57.4991C57.8966 8.55011 58.857 7.21362 61.0924 7.21362H62.5143V9.11566H60.4255C58.4195 9.11566 57.3737 10.4121 57.3737 11.9994V16.3877H61.4499V17.9963H52.4012V16.3877Z" fill="#222222"/>
<path d="M65.3794 2.53186H67.3241V12.1034H67.4282L69.2261 10.3481L72.5687 7.21358H74.8896L70.4799 11.4338L75.4124 17.9962H73.0302L69.0394 12.5622L67.3268 14.1308V17.9962H65.3821V2.53186H65.3794Z" fill="#222222"/>
<path d="M78.0641 16.3877H81.8468V8.82225H78.0641V7.21366H83.7889V16.3877H87.3422V17.9963H78.0641V16.3877ZM81.4067 3.88977V3.49229C81.4067 2.84405 81.7828 2.34253 82.8285 2.34253C83.8742 2.34253 84.2504 2.84405 84.2504 3.49229V3.88977C84.2504 4.51666 83.8742 5.01818 82.8285 5.01818C81.7828 5.01818 81.4067 4.51666 81.4067 3.88977Z" fill="#222222"/>
<path d="M89.7644 12.6263C89.7644 9.15837 91.7918 6.96289 94.7582 6.96289C97.7247 6.96289 99.6267 9.15837 99.6267 12.2715V13.0878H91.7678V13.5253C91.7678 15.3233 92.9576 16.6171 94.9236 16.6171C96.3242 16.6171 97.3885 15.9475 97.9754 14.8405L99.2932 15.8648C98.605 17.244 97.0791 18.247 94.905 18.247C91.7064 18.247 89.7644 16.0516 89.7644 12.6263ZM91.7705 11.5806V11.7487H97.6019V11.5192C97.6019 9.72124 96.4735 8.51013 94.7796 8.51013C93.0856 8.51013 91.7705 9.8066 91.7705 11.5833V11.5806Z" fill="#222222"/>
<path d="M102.302 16.1583L103.535 15.0512C104.517 16.0969 105.688 16.7025 107.36 16.7025C108.929 16.7025 110.036 16.1583 110.036 14.9685C110.036 13.9441 109.201 13.672 108.238 13.5253L106.544 13.2745C104.935 13.0451 102.887 12.5436 102.887 10.2654C102.887 7.98727 104.725 6.96289 107.358 6.96289C109.321 6.96289 110.764 7.61113 111.767 8.67552L110.577 9.84662C110.055 9.21972 109.094 8.51013 107.275 8.51013C105.688 8.51013 104.81 9.07567 104.81 10.0974C104.81 11.1191 105.666 11.4152 106.608 11.5592L108.302 11.81C109.932 12.0394 111.959 12.5409 111.959 14.8191C111.959 16.9719 110.161 18.247 107.32 18.247C105.042 18.247 103.369 17.4307 102.305 16.1583H102.302Z" fill="#222222"/>
<path d="M115.742 19.8316V18.9513H120.835V19.8316H115.742Z" fill="white"/>
<path d="M123.646 16.3877H127.429V8.82225H123.646V7.21366H129.371V16.3877H132.924V17.9963H123.646V16.3877ZM126.989 3.88977V3.49229C126.989 2.84405 127.365 2.34253 128.411 2.34253C129.456 2.34253 129.833 2.84405 129.833 3.49229V3.88977C129.833 4.51666 129.456 5.01818 128.411 5.01818C127.365 5.01818 126.989 4.51666 126.989 3.88977Z" fill="white"/>
<path d="M135.933 17.9963V7.21365H137.878V9.01165H137.961C138.42 7.92591 139.279 6.96289 141.053 6.96289C143.267 6.96289 144.753 8.4461 144.753 11.0577V17.9963H142.808V11.3939C142.808 9.5345 141.973 8.61417 140.404 8.61417C139.129 8.61417 137.875 9.24106 137.875 10.5989V17.9963H135.931H135.933Z" fill="white"/>
<path d="M147.186 19.8316V18.9513H152.278V19.8316H147.186Z" fill="white"/>
<path d="M160.188 5.14352V17.9963H158.182V5.14352H153.439V3.40955H164.933V5.14352H160.19H160.188Z" fill="white"/>
<path d="M166.79 12.6263C166.79 9.15837 168.818 6.96289 171.784 6.96289C174.75 6.96289 176.652 9.15837 176.652 12.2715V13.0878H168.794V13.5253C168.794 15.3233 169.983 16.6171 171.949 16.6171C173.35 16.6171 174.414 15.9475 175.001 14.8405L176.319 15.8648C175.631 17.244 174.105 18.247 171.931 18.247C168.732 18.247 166.79 16.0516 166.79 12.6263ZM168.796 11.5806V11.7487H174.628V11.5192C174.628 9.72124 173.499 8.51013 171.805 8.51013C170.111 8.51013 168.796 9.8066 168.796 11.5833V11.5806Z" fill="white"/>
<path d="M179.643 12.605C179.643 9.17704 181.524 6.96289 184.637 6.96289C186.768 6.96289 188.086 7.98727 188.713 9.47048L187.187 10.3055C186.789 9.2384 185.933 8.59282 184.637 8.59282C182.777 8.59282 181.71 9.8893 181.71 11.6846V13.5226C181.71 15.3206 182.756 16.6144 184.677 16.6144C186.056 16.6144 186.934 15.9048 187.478 14.7951L188.878 15.7154C188.23 17.1773 186.851 18.2444 184.658 18.2444C181.502 18.2444 179.643 16.0302 179.643 12.6023V12.605Z" fill="white"/>
<path d="M192.453 2.53186H194.398V9.01158H194.48C194.939 7.92585 195.798 6.96282 197.572 6.96282C199.786 6.96282 201.272 8.44604 201.272 11.0577V17.9962H199.327V11.3938C199.327 9.53444 198.492 8.6141 196.924 8.6141C195.649 8.6141 194.395 9.241 194.395 10.5988V17.9962H192.45V2.53186H192.453Z" fill="white"/>
<path d="M206.789 16.9533L205.41 15.9716L207.96 12.5036L203.926 11.1458L204.428 9.5772L208.461 10.9137V6.54675H210.217V10.9137L214.25 9.5772L214.752 11.1458L210.718 12.5036L213.269 15.9716L211.889 16.9533L209.339 13.464L206.789 16.9533Z" fill="white"/>
<path d="M217.425 20.8799L224.593 2.11304H226.327L219.159 20.8799H217.425Z" fill="white"/>
<path d="M55.4561 38.8907C54.6425 38.8907 54.0354 38.5951 53.635 38.0039C53.2409 37.4128 53.0438 36.561 53.0438 35.4486C53.0438 34.3363 53.2409 33.4845 53.635 32.8934C54.0354 32.3022 54.6425 32.0066 55.4561 32.0066C55.7612 32.0066 56.025 32.048 56.2475 32.1306C56.4699 32.2132 56.6606 32.3245 56.8196 32.4643C56.9785 32.6041 57.112 32.7631 57.22 32.941C57.3281 33.1127 57.4234 33.2875 57.506 33.4654L56.8196 33.7801C56.7623 33.6339 56.6956 33.4972 56.6193 33.3701C56.543 33.2366 56.4509 33.1222 56.3428 33.0268C56.2411 32.9251 56.1172 32.8457 55.971 32.7885C55.8311 32.7313 55.6595 32.7027 55.4561 32.7027C54.9285 32.7027 54.5344 32.9029 54.2738 33.3034C54.0195 33.7038 53.8924 34.2377 53.8924 34.9052V35.9921C53.8924 36.6596 54.0195 37.1935 54.2738 37.5939C54.5344 37.9944 54.9285 38.1946 55.4561 38.1946C55.6595 38.1946 55.8311 38.166 55.971 38.1088C56.1172 38.0516 56.2411 37.9753 56.3428 37.88C56.4509 37.7783 56.543 37.6639 56.6193 37.5367C56.6956 37.4033 56.7623 37.2634 56.8196 37.1172L57.506 37.4319C57.4234 37.6162 57.3281 37.7942 57.22 37.9658C57.112 38.1374 56.9785 38.2932 56.8196 38.433C56.6606 38.5728 56.4699 38.6841 56.2475 38.7667C56.025 38.8493 55.7612 38.8907 55.4561 38.8907ZM61.0492 38.8907C60.706 38.8907 60.3945 38.8303 60.1148 38.7095C59.8415 38.5887 59.6063 38.4171 59.4093 38.1946C59.2186 37.9658 59.0724 37.6957 58.9707 37.3842C58.869 37.0664 58.8181 36.7104 58.8181 36.3163C58.8181 35.9286 58.869 35.5758 58.9707 35.258C59.0724 34.9401 59.2186 34.67 59.4093 34.4475C59.6063 34.2187 59.8415 34.0439 60.1148 33.9231C60.3945 33.8023 60.706 33.7419 61.0492 33.7419C61.3925 33.7419 61.7008 33.8023 61.9741 33.9231C62.2538 34.0439 62.489 34.2187 62.6796 34.4475C62.8767 34.67 63.0261 34.9401 63.1278 35.258C63.2295 35.5758 63.2803 35.9286 63.2803 36.3163C63.2803 36.7104 63.2295 37.0664 63.1278 37.3842C63.0261 37.6957 62.8767 37.9658 62.6796 38.1946C62.489 38.4171 62.2538 38.5887 61.9741 38.7095C61.7008 38.8303 61.3925 38.8907 61.0492 38.8907ZM61.0492 38.2328C61.4751 38.2328 61.8183 38.1056 62.079 37.8514C62.3396 37.5971 62.4699 37.203 62.4699 36.6691V35.9635C62.4699 35.4296 62.3396 35.0355 62.079 34.7812C61.8183 34.527 61.4751 34.3998 61.0492 34.3998C60.6233 34.3998 60.2801 34.527 60.0195 34.7812C59.7589 35.0355 59.6286 35.4296 59.6286 35.9635V36.6691C59.6286 37.203 59.7589 37.5971 60.0195 37.8514C60.2801 38.1056 60.6233 38.2328 61.0492 38.2328ZM64.9356 38.7762V33.8564H65.6984V34.6573H65.7365C65.7874 34.5365 65.851 34.4221 65.9272 34.314C66.0035 34.1996 66.0957 34.1011 66.2037 34.0185C66.3182 33.9358 66.4516 33.8691 66.6042 33.8182C66.7568 33.7674 66.9347 33.7419 67.1381 33.7419C67.653 33.7419 68.0662 33.9072 68.3776 34.2377C68.6891 34.5619 68.8448 35.0228 68.8448 35.6203V38.7762H68.0821V35.7538C68.0821 35.3025 67.9835 34.9687 67.7865 34.7526C67.5894 34.5301 67.3002 34.4189 66.9188 34.4189C66.7663 34.4189 66.6169 34.438 66.4707 34.4761C66.3245 34.5143 66.1942 34.5715 66.0798 34.6477C65.9654 34.724 65.8732 34.8225 65.8033 34.9433C65.7334 35.0641 65.6984 35.2039 65.6984 35.3628V38.7762H64.9356ZM70.748 38.7762V33.8564H71.5108V34.6573H71.549C71.5998 34.5365 71.6634 34.4221 71.7397 34.314C71.8159 34.1996 71.9081 34.1011 72.0162 34.0185C72.1306 33.9358 72.2641 33.8691 72.4166 33.8182C72.5692 33.7674 72.7471 33.7419 72.9506 33.7419C73.4654 33.7419 73.8786 33.9072 74.1901 34.2377C74.5015 34.5619 74.6573 35.0228 74.6573 35.6203V38.7762H73.8945V35.7538C73.8945 35.3025 73.796 34.9687 73.5989 34.7526C73.4019 34.5301 73.1126 34.4189 72.7313 34.4189C72.5787 34.4189 72.4293 34.438 72.2831 34.4761C72.1369 34.5143 72.0066 34.5715 71.8922 34.6477C71.7778 34.724 71.6856 34.8225 71.6157 34.9433C71.5458 35.0641 71.5108 35.2039 71.5108 35.3628V38.7762H70.748ZM78.5723 38.8907C78.2163 38.8907 77.8953 38.8303 77.6093 38.7095C77.3296 38.5887 77.088 38.4171 76.8846 38.1946C76.6876 37.9658 76.535 37.6957 76.427 37.3842C76.3189 37.0664 76.2649 36.7136 76.2649 36.3258C76.2649 35.9317 76.3189 35.5758 76.427 35.258C76.5414 34.9401 76.6971 34.67 76.8942 34.4475C77.0912 34.2187 77.3264 34.0439 77.5997 33.9231C77.8794 33.8023 78.1877 33.7419 78.5246 33.7419C78.8551 33.7419 79.1539 33.8023 79.4209 33.9231C79.6942 34.0439 79.9262 34.2123 80.1169 34.4284C80.3076 34.6382 80.4538 34.8893 80.5555 35.1817C80.6572 35.4741 80.708 35.7951 80.708 36.1447V36.507H77.0658V36.7358C77.0658 36.9519 77.1008 37.1522 77.1707 37.3365C77.2406 37.5208 77.3391 37.6798 77.4663 37.8132C77.5997 37.9467 77.7587 38.0516 77.943 38.1279C78.1337 38.1978 78.3434 38.2328 78.5723 38.2328C78.9028 38.2328 79.1889 38.1565 79.4304 38.0039C79.6719 37.8514 79.8563 37.6416 79.9834 37.3747L80.546 37.756C80.3998 38.0866 80.155 38.3599 79.8118 38.576C79.4749 38.7858 79.0617 38.8907 78.5723 38.8907ZM78.5246 34.3712C78.3148 34.3712 78.121 34.4094 77.943 34.4856C77.765 34.5619 77.6093 34.6668 77.4758 34.8003C77.3487 34.9338 77.247 35.0927 77.1707 35.277C77.1008 35.455 77.0658 35.6521 77.0658 35.8682V35.9349H79.8881V35.83C79.8881 35.6139 79.8531 35.4169 79.7832 35.2389C79.7196 35.0609 79.6274 34.9084 79.5067 34.7812C79.3923 34.6477 79.2492 34.546 79.0776 34.4761C78.9123 34.4062 78.728 34.3712 78.5246 34.3712ZM84.4705 38.8907C84.1145 38.8907 83.7967 38.8303 83.517 38.7095C83.2437 38.5824 83.0117 38.4076 82.821 38.1851C82.6303 37.9626 82.4841 37.6925 82.3824 37.3747C82.2871 37.0568 82.2394 36.704 82.2394 36.3163C82.2394 35.9286 82.2902 35.5758 82.3919 35.258C82.4937 34.9401 82.6399 34.67 82.8305 34.4475C83.0212 34.2187 83.2532 34.0439 83.5266 33.9231C83.7999 33.8023 84.1114 33.7419 84.461 33.7419C84.9377 33.7419 85.3254 33.8468 85.6242 34.0566C85.923 34.2664 86.1422 34.5397 86.2821 34.8766L85.6719 35.2007C85.5829 34.9465 85.4335 34.7494 85.2237 34.6096C85.0203 34.4698 84.7661 34.3998 84.461 34.3998C84.2385 34.3998 84.0383 34.438 83.8603 34.5143C83.6887 34.5842 83.5425 34.6859 83.4217 34.8194C83.3009 34.9528 83.2088 35.1118 83.1452 35.2961C83.088 35.4804 83.0594 35.6807 83.0594 35.8968V36.7358C83.0594 36.9519 83.088 37.1522 83.1452 37.3365C83.2088 37.5208 83.3009 37.6798 83.4217 37.8132C83.5425 37.9467 83.6918 38.0516 83.8698 38.1279C84.0478 38.1978 84.2512 38.2328 84.48 38.2328C84.8106 38.2328 85.0839 38.1565 85.3 38.0039C85.5161 37.8514 85.6878 37.6416 85.8149 37.3747L86.3584 37.7465C86.2122 38.077 85.9833 38.3504 85.6719 38.5665C85.3668 38.7826 84.9663 38.8907 84.4705 38.8907ZM90.3497 38.7762C89.9746 38.7762 89.6981 38.6714 89.5201 38.4616C89.3485 38.2518 89.2627 37.9817 89.2627 37.6512V34.5047H87.6228V33.8564H88.8432C89.0085 33.8564 89.1229 33.8246 89.1864 33.761C89.2564 33.6911 89.2913 33.5735 89.2913 33.4082V32.1211H90.0255V33.8564H92.2661V34.5047H90.0255V38.1279H92.2661V38.7762H90.3497ZM95.9237 38.8621C95.6631 38.8621 95.4788 38.808 95.3707 38.7C95.269 38.5919 95.2181 38.4552 95.2181 38.29V38.1184C95.2181 37.9531 95.269 37.8164 95.3707 37.7084C95.4788 37.6003 95.6631 37.5463 95.9237 37.5463C96.1843 37.5463 96.3655 37.6003 96.4672 37.7084C96.5752 37.8164 96.6293 37.9531 96.6293 38.1184V38.29C96.6293 38.4552 96.5752 38.5919 96.4672 38.7C96.3655 38.808 96.1843 38.8621 95.9237 38.8621ZM101.717 38.8907C101.12 38.8907 100.63 38.7826 100.249 38.5665C99.8673 38.344 99.5527 38.0611 99.3048 37.7179L99.8864 37.2412C100.147 37.5653 100.42 37.8069 100.706 37.9658C100.999 38.1247 101.345 38.2042 101.746 38.2042C102.229 38.2042 102.597 38.0929 102.852 37.8705C103.106 37.648 103.233 37.3365 103.233 36.9361C103.233 36.6119 103.141 36.3608 102.957 36.1828C102.772 35.9985 102.451 35.8682 101.994 35.7919L101.25 35.6679C100.926 35.6107 100.652 35.5249 100.43 35.4105C100.214 35.2961 100.039 35.1594 99.9055 35.0005C99.772 34.8353 99.6766 34.6573 99.6194 34.4666C99.5622 34.2695 99.5336 34.0661 99.5336 33.8564C99.5336 33.2461 99.7339 32.7853 100.134 32.4738C100.535 32.1624 101.075 32.0066 101.755 32.0066C102.289 32.0066 102.737 32.0956 103.1 32.2736C103.468 32.4516 103.764 32.7027 103.986 33.0268L103.424 33.5131C103.239 33.2716 103.017 33.0745 102.756 32.922C102.496 32.7694 102.159 32.6931 101.746 32.6931C101.294 32.6931 100.948 32.7885 100.706 32.9792C100.465 33.1699 100.344 33.4559 100.344 33.8373C100.344 34.136 100.433 34.3808 100.611 34.5715C100.795 34.7558 101.123 34.8893 101.593 34.9719L102.308 35.0959C102.632 35.1531 102.906 35.2389 103.128 35.3533C103.351 35.4677 103.529 35.6044 103.662 35.7633C103.802 35.9222 103.9 36.1002 103.958 36.2972C104.015 36.4943 104.044 36.7009 104.044 36.917C104.044 37.5336 103.84 38.0167 103.433 38.3663C103.033 38.7159 102.461 38.8907 101.717 38.8907ZM105.623 31.7206H106.385V34.6573H106.423C106.474 34.5365 106.538 34.4221 106.614 34.314C106.69 34.1996 106.783 34.1011 106.891 34.0185C107.005 33.9358 107.139 33.8691 107.291 33.8182C107.444 33.7674 107.622 33.7419 107.825 33.7419C108.34 33.7419 108.753 33.9072 109.065 34.2377C109.376 34.5619 109.532 35.0228 109.532 35.6203V38.7762H108.769V35.7538C108.769 35.3025 108.67 34.9687 108.473 34.7526C108.276 34.5301 107.987 34.4189 107.606 34.4189C107.453 34.4189 107.304 34.438 107.158 34.4761C107.011 34.5143 106.881 34.5715 106.767 34.6477C106.652 34.724 106.56 34.8225 106.49 34.9433C106.42 35.0641 106.385 35.2039 106.385 35.3628V38.7762H105.623V31.7206ZM115.22 38.7762C114.921 38.7762 114.709 38.7 114.581 38.5474C114.454 38.3949 114.375 38.2042 114.343 37.9753H114.295C114.187 38.2614 114.012 38.487 113.771 38.6523C113.536 38.8112 113.218 38.8907 112.817 38.8907C112.303 38.8907 111.893 38.7572 111.588 38.4902C111.282 38.2232 111.13 37.8577 111.13 37.3937C111.13 36.9361 111.295 36.5833 111.626 36.3354C111.963 36.0875 112.503 35.9635 113.247 35.9635H114.295V35.4773C114.295 35.1149 114.194 34.8448 113.99 34.6668C113.787 34.4825 113.498 34.3903 113.123 34.3903C112.792 34.3903 112.522 34.457 112.312 34.5905C112.102 34.7177 111.934 34.8925 111.807 35.1149L111.292 34.7336C111.356 34.6064 111.441 34.4825 111.549 34.3617C111.657 34.2409 111.791 34.136 111.95 34.0471C112.109 33.9517 112.29 33.8786 112.493 33.8278C112.697 33.7706 112.922 33.7419 113.17 33.7419C113.749 33.7419 114.206 33.8881 114.543 34.1805C114.887 34.4729 115.058 34.8797 115.058 35.401V38.1088H115.745V38.7762H115.22ZM112.951 38.2518C113.148 38.2518 113.326 38.2296 113.485 38.1851C113.65 38.1342 113.793 38.0707 113.914 37.9944C114.035 37.9118 114.127 37.8164 114.19 37.7084C114.26 37.5939 114.295 37.4732 114.295 37.346V36.5356H113.247C112.789 36.5356 112.455 36.5992 112.245 36.7263C112.036 36.8534 111.931 37.0378 111.931 37.2793V37.4795C111.931 37.7338 112.02 37.9277 112.198 38.0611C112.382 38.1883 112.633 38.2518 112.951 38.2518ZM117.047 38.1279H118.487V34.5047H117.047V33.8564H119.25V35.0959H119.297C119.399 34.7081 119.59 34.4062 119.869 34.1901C120.155 33.9676 120.518 33.8564 120.956 33.8564H121.643V34.6191H120.718C120.279 34.6191 119.923 34.7463 119.65 35.0005C119.383 35.2548 119.25 35.5885 119.25 36.0017V38.1279H121.157V38.7762H117.047V38.1279ZM125.072 38.8907C124.716 38.8907 124.395 38.8303 124.109 38.7095C123.829 38.5887 123.587 38.4171 123.384 38.1946C123.187 37.9658 123.034 37.6957 122.926 37.3842C122.818 37.0664 122.764 36.7136 122.764 36.3258C122.764 35.9317 122.818 35.5758 122.926 35.258C123.041 34.9401 123.196 34.67 123.394 34.4475C123.591 34.2187 123.826 34.0439 124.099 33.9231C124.379 33.8023 124.687 33.7419 125.024 33.7419C125.354 33.7419 125.653 33.8023 125.92 33.9231C126.194 34.0439 126.426 34.2123 126.616 34.4284C126.807 34.6382 126.953 34.8893 127.055 35.1817C127.157 35.4741 127.207 35.7951 127.207 36.1447V36.507H123.565V36.7358C123.565 36.9519 123.6 37.1522 123.67 37.3365C123.74 37.5208 123.838 37.6798 123.966 37.8132C124.099 37.9467 124.258 38.0516 124.442 38.1279C124.633 38.1978 124.843 38.2328 125.072 38.2328C125.402 38.2328 125.688 38.1565 125.93 38.0039C126.171 37.8514 126.356 37.6416 126.483 37.3747L127.045 37.756C126.899 38.0866 126.654 38.3599 126.311 38.576C125.974 38.7858 125.561 38.8907 125.072 38.8907ZM125.024 34.3712C124.814 34.3712 124.62 34.4094 124.442 34.4856C124.264 34.5619 124.109 34.6668 123.975 34.8003C123.848 34.9338 123.746 35.0927 123.67 35.277C123.6 35.455 123.565 35.6521 123.565 35.8682V35.9349H126.387V35.83C126.387 35.6139 126.352 35.4169 126.283 35.2389C126.219 35.0609 126.127 34.9084 126.006 34.7812C125.892 34.6477 125.749 34.546 125.577 34.4761C125.412 34.4062 125.227 34.3712 125.024 34.3712ZM130.798 38.8621C130.538 38.8621 130.353 38.808 130.245 38.7C130.143 38.5919 130.093 38.4552 130.093 38.29V38.1184C130.093 37.9531 130.143 37.8164 130.245 37.7084C130.353 37.6003 130.538 37.5463 130.798 37.5463C131.059 37.5463 131.24 37.6003 131.342 37.7084C131.45 37.8164 131.504 37.9531 131.504 38.1184V38.29C131.504 38.4552 131.45 38.5919 131.342 38.7C131.24 38.808 131.059 38.8621 130.798 38.8621ZM134.608 38.7762V32.1211H138.708V32.8171H135.409V35.0577H138.594V35.7538H135.409V38.0802H138.708V38.7762H134.608ZM140.078 38.7762V33.8564H140.783V34.4284H140.821C140.897 34.2377 141.006 34.0757 141.145 33.9422C141.285 33.8087 141.492 33.7419 141.765 33.7419C142.051 33.7419 142.264 33.815 142.404 33.9612C142.544 34.1011 142.63 34.2854 142.661 34.5143H142.69C142.779 34.2918 142.906 34.1074 143.071 33.9612C143.237 33.815 143.465 33.7419 143.758 33.7419C144.158 33.7419 144.425 33.8818 144.559 34.1615C144.699 34.4412 144.769 34.8416 144.769 35.3628V38.7762H144.063V35.4868C144.063 35.0673 144.019 34.778 143.93 34.6191C143.847 34.4539 143.691 34.3712 143.462 34.3712C143.259 34.3712 143.094 34.438 142.967 34.5715C142.839 34.6986 142.776 34.8956 142.776 35.1626V38.7762H142.07V35.4868C142.07 35.0673 142.026 34.778 141.937 34.6191C141.854 34.4539 141.702 34.3712 141.479 34.3712C141.276 34.3712 141.107 34.438 140.974 34.5715C140.847 34.6986 140.783 34.8956 140.783 35.1626V38.7762H140.078ZM146.281 33.8564H147.044V34.6573H147.082C147.4 34.0471 147.905 33.7419 148.598 33.7419C149.202 33.7419 149.672 33.9676 150.009 34.4189C150.352 34.8702 150.524 35.5027 150.524 36.3163C150.524 37.1299 150.352 37.7624 150.009 38.2137C149.672 38.665 149.202 38.8907 148.598 38.8907C147.905 38.8907 147.4 38.5856 147.082 37.9753H147.044V40.6832H146.281V33.8564ZM148.302 38.2137C148.747 38.2137 149.09 38.0802 149.332 37.8132C149.58 37.5399 149.704 37.1808 149.704 36.7358V35.8968C149.704 35.4518 149.58 35.0959 149.332 34.8289C149.09 34.5556 148.747 34.4189 148.302 34.4189C148.131 34.4189 147.968 34.4412 147.816 34.4856C147.663 34.5301 147.53 34.5969 147.415 34.6859C147.301 34.7685 147.209 34.8734 147.139 35.0005C147.075 35.1213 147.044 35.2643 147.044 35.4296V37.203C147.044 37.3683 147.075 37.5145 147.139 37.6416C147.209 37.7624 147.301 37.8673 147.415 37.9563C147.53 38.0389 147.663 38.1025 147.816 38.147C147.968 38.1915 148.131 38.2137 148.302 38.2137ZM154.048 38.8907C153.705 38.8907 153.393 38.8303 153.113 38.7095C152.84 38.5887 152.605 38.4171 152.408 38.1946C152.217 37.9658 152.071 37.6957 151.969 37.3842C151.868 37.0664 151.817 36.7104 151.817 36.3163C151.817 35.9286 151.868 35.5758 151.969 35.258C152.071 34.9401 152.217 34.67 152.408 34.4475C152.605 34.2187 152.84 34.0439 153.113 33.9231C153.393 33.8023 153.705 33.7419 154.048 33.7419C154.391 33.7419 154.699 33.8023 154.973 33.9231C155.252 34.0439 155.488 34.2187 155.678 34.4475C155.875 34.67 156.025 34.9401 156.126 35.258C156.228 35.5758 156.279 35.9286 156.279 36.3163C156.279 36.7104 156.228 37.0664 156.126 37.3842C156.025 37.6957 155.875 37.9658 155.678 38.1946C155.488 38.4171 155.252 38.5887 154.973 38.7095C154.699 38.8303 154.391 38.8907 154.048 38.8907ZM154.048 38.2328C154.474 38.2328 154.817 38.1056 155.078 37.8514C155.338 37.5971 155.469 37.203 155.469 36.6691V35.9635C155.469 35.4296 155.338 35.0355 155.078 34.7812C154.817 34.527 154.474 34.3998 154.048 34.3998C153.622 34.3998 153.279 34.527 153.018 34.7812C152.758 35.0355 152.627 35.4296 152.627 35.9635V36.6691C152.627 37.203 152.758 37.5971 153.018 37.8514C153.279 38.1056 153.622 38.2328 154.048 38.2328ZM157.286 33.8564H157.963L158.525 38.1088H158.611L159.45 33.8564H160.289L161.128 38.1088H161.214L161.777 33.8564H162.435L161.681 38.7762H160.69L159.908 34.6573H159.832L159.031 38.7762H158.039L157.286 33.8564ZM165.759 38.8907C165.403 38.8907 165.082 38.8303 164.796 38.7095C164.516 38.5887 164.274 38.4171 164.071 38.1946C163.874 37.9658 163.721 37.6957 163.613 37.3842C163.505 37.0664 163.451 36.7136 163.451 36.3258C163.451 35.9317 163.505 35.5758 163.613 35.258C163.728 34.9401 163.883 34.67 164.08 34.4475C164.277 34.2187 164.513 34.0439 164.786 33.9231C165.066 33.8023 165.374 33.7419 165.711 33.7419C166.041 33.7419 166.34 33.8023 166.607 33.9231C166.88 34.0439 167.112 34.2123 167.303 34.4284C167.494 34.6382 167.64 34.8893 167.742 35.1817C167.843 35.4741 167.894 35.7951 167.894 36.1447V36.507H164.252V36.7358C164.252 36.9519 164.287 37.1522 164.357 37.3365C164.427 37.5208 164.525 37.6798 164.652 37.8132C164.786 37.9467 164.945 38.0516 165.129 38.1279C165.32 38.1978 165.53 38.2328 165.759 38.2328C166.089 38.2328 166.375 38.1565 166.617 38.0039C166.858 37.8514 167.043 37.6416 167.17 37.3747L167.732 37.756C167.586 38.0866 167.341 38.3599 166.998 38.576C166.661 38.7858 166.248 38.8907 165.759 38.8907ZM165.711 34.3712C165.501 34.3712 165.307 34.4094 165.129 34.4856C164.951 34.5619 164.796 34.6668 164.662 34.8003C164.535 34.9338 164.433 35.0927 164.357 35.277C164.287 35.455 164.252 35.6521 164.252 35.8682V35.9349H167.074V35.83C167.074 35.6139 167.039 35.4169 166.969 35.2389C166.906 35.0609 166.814 34.9084 166.693 34.7812C166.578 34.6477 166.435 34.546 166.264 34.4761C166.099 34.4062 165.914 34.3712 165.711 34.3712ZM169.359 38.1279H170.799V34.5047H169.359V33.8564H171.561V35.0959H171.609C171.711 34.7081 171.901 34.4062 172.181 34.1901C172.467 33.9676 172.83 33.8564 173.268 33.8564H173.955V34.6191H173.03C172.591 34.6191 172.235 34.7463 171.962 35.0005C171.695 35.2548 171.561 35.5885 171.561 36.0017V38.1279H173.468V38.7762H169.359V38.1279Z" fill="white"/>
</g>
<defs>
<clipPath id="clip0_2176_1265">
<rect width="226.249" height="40.5056" fill="white" transform="translate(0.078064 0.747192)"/>
</clipPath>
</defs>
</svg>
