<svg id="Group_19" data-name="Group 19" xmlns="http://www.w3.org/2000/svg" width="200.812" height="18" viewBox="0 0 200.812 18">
  <path id="Path_49" data-name="Path 49" d="M64.711,1.179v14.51a2.639,2.639,0,0,0,.111.851q.185.53,1.19.728.321.062,1.153.173v.654H59.852v-.654a6.684,6.684,0,0,0,1.788-.37.987.987,0,0,0,.617-.53,2.646,2.646,0,0,0,.111-.851V1.179h-1.85a2.917,2.917,0,0,0-2.343.789,15.5,15.5,0,0,0-1.85,3.626H55.77L56.14.31H70.878l.382,5.285h-.549a15.521,15.521,0,0,0-1.85-3.626,2.843,2.843,0,0,0-2.306-.82Z" transform="translate(-55.77 -0.119)" fill="#b5beaf"/>
  <path id="Path_50" data-name="Path 50" d="M101.836,2.814v5.7h8.874v-5.7q0-1.042-.382-1.344a4.317,4.317,0,0,0-1.85-.462V.36H115.3v.654a4.421,4.421,0,0,0-1.85.469q-.382.3-.382,1.326V15.647q0,1.042.382,1.338a4.421,4.421,0,0,0,1.85.469v.654H108.49V17.46a4.316,4.316,0,0,0,1.85-.469,1.751,1.751,0,0,0,.382-1.338V9.388h-8.886v6.29q0,1.042.382,1.338a4.4,4.4,0,0,0,1.85.469v.654H97.23V17.46a4.428,4.428,0,0,0,1.85-.469q.382-.3.382-1.338V2.808q0-1.042-.382-1.338a4.354,4.354,0,0,0-1.85-.456V.36h6.826v.654a4.317,4.317,0,0,0-1.85.475,1.714,1.714,0,0,0-.37,1.326Z" transform="translate(-71.664 -0.138)" fill="#b5beaf"/>
  <path id="Path_51" data-name="Path 51" d="M143.44,18.113V17.4a4.44,4.44,0,0,0,1.85-.469q.382-.3.382-1.332V2.839q0-1.036-.382-1.332a4.366,4.366,0,0,0-1.85-.456V.36h13.2l.136,4.224h-.506a7.906,7.906,0,0,0-1.6-2.689,3,3,0,0,0-2.084-.691h-4.532V8.518h4.027a1.363,1.363,0,0,0,1.172-.543,4.384,4.384,0,0,0,.617-1.733h.678v5.383h-.678a4.366,4.366,0,0,0-.617-1.72,1.394,1.394,0,0,0-1.172-.555h-4.027v6.2a1.511,1.511,0,0,0,.555,1.357,3.589,3.589,0,0,0,1.924.358h2.319a3.015,3.015,0,0,0,2.134-.789,13.812,13.812,0,0,0,2.109-2.923h.617l-.752,4.557Z" transform="translate(-89.378 -0.138)" fill="#b5beaf"/>
  <path id="Path_52" data-name="Path 52" d="M207.213,18.112H199.77V17.4a4.44,4.44,0,0,0,1.85-.469q.382-.3.382-1.332V2.838q0-1.036-.382-1.332a4.366,4.366,0,0,0-1.85-.456V.359h7.091a10.958,10.958,0,0,1,4.008.691,7.461,7.461,0,0,1,2.837,1.85,8.337,8.337,0,0,1,2.134,5.827,9.446,9.446,0,0,1-2.467,6.863,8.275,8.275,0,0,1-6.16,2.522ZM206.5,1.2h-2.121V15.479a1.683,1.683,0,0,0,.506,1.431,3,3,0,0,0,1.739.358h.691a5.55,5.55,0,0,0,4.458-2.047,8.567,8.567,0,0,0,1.708-5.655A10.23,10.23,0,0,0,211.936,3.7a5.365,5.365,0,0,0-2.171-1.85A7.431,7.431,0,0,0,206.5,1.2Z" transform="translate(-110.973 -0.137)" fill="#b5beaf"/>
  <path id="Path_53" data-name="Path 53" d="M241.78,18.113V17.4a4.44,4.44,0,0,0,1.85-.469q.382-.3.382-1.332V2.839q0-1.036-.382-1.332a4.366,4.366,0,0,0-1.85-.456V.36h13.2l.136,4.224h-.506a7.905,7.905,0,0,0-1.591-2.695,3,3,0,0,0-2.084-.691H246.4v7.32h4.027a1.363,1.363,0,0,0,1.172-.543,4.384,4.384,0,0,0,.617-1.733h.678v5.383h-.678a4.366,4.366,0,0,0-.617-1.72,1.394,1.394,0,0,0-1.172-.555H246.4v6.2a1.511,1.511,0,0,0,.555,1.357,3.589,3.589,0,0,0,1.924.358h2.288a3.015,3.015,0,0,0,2.134-.789,13.813,13.813,0,0,0,2.109-2.923h.617l-.752,4.557Z" transform="translate(-127.077 -0.138)" fill="#b5beaf"/>
  <path id="Path_54" data-name="Path 54" d="M285.756,2.808V15.554a1.517,1.517,0,0,0,.555,1.363,3.583,3.583,0,0,0,1.924.358h1.492a3.034,3.034,0,0,0,2.319-.888,14.922,14.922,0,0,0,2.023-3.207h.617l-.8,4.933H281.15V17.4a4.434,4.434,0,0,0,1.85-.469q.382-.3.382-1.338V2.808q0-1.042-.382-1.338a4.359,4.359,0,0,0-1.85-.456V.36h6.826v.654a4.353,4.353,0,0,0-1.85.469,1.7,1.7,0,0,0-.37,1.326Z" transform="translate(-142.169 -0.138)" fill="#b5beaf"/>
  <path id="Path_55" data-name="Path 55" d="M324.441,1.179v14.51a2.639,2.639,0,0,0,.111.851q.185.53,1.19.728.321.062,1.153.173v.654h-7.307v-.654a6.685,6.685,0,0,0,1.788-.37.987.987,0,0,0,.617-.53,2.646,2.646,0,0,0,.111-.851V1.179h-1.85a2.917,2.917,0,0,0-2.349.789,15.5,15.5,0,0,0-1.85,3.626H315.5L315.87.31h14.738l.382,5.285h-.555a15.521,15.521,0,0,0-1.85-3.626,2.843,2.843,0,0,0-2.294-.789Z" transform="translate(-155.338 -0.119)" fill="#b5beaf"/>
  <path id="Path_56" data-name="Path 56" d="M358.289,17.975H353.3v-.654a1.665,1.665,0,0,0,1.492-.937l5.821-14.719L359.9,0h2.528l6.721,16.378a1.739,1.739,0,0,0,1.492.937v.654h-6.462v-.647a5.55,5.55,0,0,0,1.776-.284.734.734,0,0,0,.493-.7,3.084,3.084,0,0,0-.247-1.11l-1.418-3.435h-7.209l-1.332,3.41a3.084,3.084,0,0,0-.247,1.11.759.759,0,0,0,.493.715,5.389,5.389,0,0,0,1.8.3Zm2.843-15.25-3.237,8.22h6.567Z" transform="translate(-169.828)" fill="#b5beaf"/>
</svg>
